<?xml version="1.0" encoding="utf-8"?><svg xmlns="http://www.w3.org/2000/svg" version="1.1" baseProfile="tiny" width="1200" height="800" viewBox="0 0 1200 800"><g><g stroke="#000000" stroke-width=".98" fill="#FFFFFF"><path id="Alimango" d="m1064.56 370.88l-.08-1.85-.05-1.8 3.05-28.96-2.3-13.87-5.58-21.2-1.83-8.84-6.26-1.2-8.41-.27-7.63-.77-9.13-.33-8.66-2.29-1.21-.11-1.25-.33-1.21-.76-1.42-.5-1.33-.93-1.67-.7-1.67-1.21-5.83-2.07-2.67-3.77-1.08-2.29 0-10.66-1.26-1.13-.32-.29-1.91.84-.47.2-1.92-.65-.6 1.02-.82 1.38-2.38.69-2.87.84-9.33 2.89-1.96.6-.58.17-1.13.32-1.74-.34-2.72-.53-3.78-2.99-2.84-2.25-1.19-1.82-.56-.86-2.04-3.28-.12.02-1.05.15-.99.19-.43.08-4.21.77-4.03 1.42-1.84.65-1.92 1.62-.67.57-5.46.49-5.04 1.31-2.73.65-1.35.33-5.5 1.91-2.97 1-4.87 1.63-8.75-2.03.46-2.07.21-1.09-2.55-3.28-1.69.03-.93.02-.82.02-1.43.04-1.63-2.02-1.46-1.59-2.54-.44-4.08-2.51-4.17-5.18-.92-.67-2.7-1.96-12.05-7.04-2.81.06-8.82.21-4 8.9-22.96 51.19.17 60.57.08 50.58.46 7.54.58 1.36 2.17 6.07 0 6.66.33 8.08 2.25 6.02 2.75.11 3.84-3.72 5.29-6.72 11.09-3.44 2.54 3.61 1.83-1.64 1.09 2.24 3.95 6.44 1.67 6.28 5.34 8.74 4.12 2.84 8.17 4.54 4.96 2.18 8.58 1.75 6.96.65 9.67-.43 11.21 1.03 7.09-9.94 2.91-5.62 2.59-3.23-.59-11.08-2.2-1.37-.96 2.95-.29 4.21-.71 3.33-3.34 2.18-4.37 1.97-3.42-3.71-1.33-2.63-3-4.09-6.51-2.79-3.95-4.53-1.21-6.66.41-4.37 2.67-6.83 2.88-1.75-.09 2.62-1.21 2.9-.08 5.35-.58 4.53 1.62 2.57 2.92 2.51 4.75 2.41 3.75 2.18 1.92 1.64 2.42 2.73.41-.22 1.13-1.64.46-1.53 1.41-3.33.42-2.13.79-2.62 3.88-5.02 3-1.1 4.46-2.73 3.96-2.02 5.41-1.86 6.13-5.79 2.71-4.31-1.59 0-3 3.06-1.5 0-1.5 1.52-1.5 0-3.08-3.05 2.21-3.06 2.21-2.08 2.29-2.13 2.25-1.8 1.46-1.48.16-1.58 1.59 0 1.5-1.53 1.67-.11 1.87-.93 2-.87 1.75-1.09 1.42-1.04 1.62-.49 1.8-.06 1.5 0 1.45-.16 1.17-.77 1.58-.49 1.84-.33 1.58-.98 2.04-.49 2.38-.88 2.96-.76 2.46-1.37 1.87-1.74 1.54-1.8 1.75-.94 1.59-.98 1.71-.27 1.91.38 1.96 0 1.84-.65 1.54-.93 1.21-1.31 1.21-1.48 1.58-1.25 1.42-1.42.95-1.59 1.42-.98 1.54-1.53 1.55 0 4.54-4.54 0-1.52 1.5-1.53 0-1.53 2.71-2.63 1.83-1.91 0-1.52-1.54-1.48 0-3.06 6.12-6.06 3.01 0 1.54 1.53 0 3 1.46 1.53 1.58 0 1.5 1.53 1.54 0 1.5 1.53 3 0 1.25 1.26.29 1.74 7.09 7.1z" /><path id="sagay" d="m854.06 253.17l-44.75-47.14-69.68 29.39 7.42 3.33 4.75 2.57 4.54.93 6.46-.65 6.25-1.76 10.38 4.65 5.87 6.28 3.09 6.39 2.79 9.01 2.71 5.08 1.41 4.32-1.54 2.95 3.21 4.2 8.17 8.09-.75 5.4 2 1.59-.25 3.22 5.46.49.87 3.93 4.05 1.7 2.87-.6 1.04 1.58 1.59-2.4 3.54-1.04 1.04 3.39 1.75-1.69 2.75-2.02 22.96-51.19z" /><path id="sagay" d="m524.34 522.24l-90.6-3.65-64.47-25.08-40.13 152.95 77.18.05 101.1-34.36-2.08-13.82 1.5-20.48 6.04-14.2 11.46-41.41z" /><path id="sagay" d="m1062.52 388.75l.21-1.87-5.92 11.41-3.09 5.97-15.91 132.46 28.45 3.08 80.64 8.72 1.84-.49.29-1.21 1.67-.54 2.25.71.62.27 2.13 1.09 2.63-.38 2.37-1.47.54-.33 1.59-.98 1.83-1.1 1.42-1.31 1.58-1.47.33-.22 1.67-1.42 2.29-2.08 2.46-2.4 2.79-2.29 2.59-2.41 2.33-2.46 2.33-2.18 1.67-1.69.54-.6 2.17-2.08 2.04-2.29 1.67-2.52 1.46-2.56 1-2.63-.13-2.73-.66-2.78-.38-2.84-.87-2.3-1.05-1.91-.79-1.69-.08-1.64-.08-1.53-.22-1.37-1.37-1.2-2.71-1.15-3.5-.32-2.58-.22-1.75-1.15-1-1.75-.17-1.96-.29-1.31.54-1.04.71-1.15 1.09-1.47 1.54-1.75.62-2.02-.13-2.08-.58-1.91-.75-1.8-.7-1.86-.71-1.97-.17-2.4-.46-2.62-1.17-2.51-1.66-2.08-2.42-.87-1.75-1.26-1.21-1.2-.83-1.42-.79-1.42-.55-1.86-1-2.02-.29-2.24-.08-2.18-.5-1.86-.75-1.59-.34-1.74-.74-1.75-.67-2.13-1.09-2.41-1.83-2.29-2-2.35-1.96-1.91-1.75-1.86-1.16-1.91-1.05-1.86-1.21-1.53-.99-1.53-.97-1.69-1.04-1.69-1.04-1.75-.58-2.08-.88-1.36-.33-.55-2.29-1.36-3.54.38-3.21 1.37-.13 2.02-1.16 1.25-1.13 1.91-5.84-1.85-2.29-.55-2.96-.71-3.12-1.31-3.3-1.42-2.87-1.64-2.58-1.53-2.05-1.15-2.16.44-1.42 1.86-1.42 1.86-2.79 3.33-3.08 1.69-2.38.6-.46.17-2.54.71-2.04.16-1.04-.82.62-1.53 2.01-1.31 2.16-1.15 2-1.47 2.25-1.86.46-.44 2.17-1.96 1.2-2.19-1.62-1.2-3.75-1.15-4.33-1.03-3.42-1.15-2.63-1.15-2.46-.93-2.12-1.09-2.21-.98-2.71-.44-2.5-.16-.87.05-.92.06-2.13.11-1.54 1.52-3 0-1.37-.76-.92-.66-.92-.65-.87-1.8z" /><path id="sagay" d="m1064.32 383.8l-.59 1.14 1.83-1.76 1.04-2.19-.34-.92-1.94 3.73z" /><path id="sagay" d="m943.7 22.39l-.87-.82-18.85 5.79-60.83 18.68-61.91 23.81-27.06 10.41-19.26 7.41 109.39 58.93.46.18 1.67.64 3.83-1.85 1.23-.86.73-.51 2.76-3.88 3.45-2.18 2.21.05.08 0 .09.01 4.71.26 1.33-1.88.83-1.17 1.26-.68 1.5-.8.55.27 1.03.5 1.83 2.18-.04.44.13 2.67 1.15 3.07.05.16 1.96.43 3.25 1.84.63.35.61-.18 2.06-.59 6.54 2.3 4.75.6.83.13 3.75.58 2.55-1.15.1.03 1.27.35 3.29.55 4.8 1.58 3.91.11 4.88-1.58.71-1.86.25-.65-.67-3.66 1.08-1.06.21-.2 3.58 1.2 4.38.88 4.42-2.9.46-.93-1.29-2.56-1.09-2.63.13-2.24.2-2.67-.87-3.66-.25-3.61.12-3-.7-2.29-1.01-2.3-.16-2.68.16-2.56.13-.6.67-1.53.5-1.2 0-3.06 1.46-1.53 0-1.48 1.54-1.53 0-2.29 0-.77-1.54-1.47-1.3-2.13-1.33-2.46-1.46-2.51-1.71-2.3-.62-1.69-.29-.82-.79-2.07-.63-1.7-.75-1.31-.17-1.47 1.13-7.71.79-3.76.75-4.16 1.88-1.91 3.79-2.24 3.58-1.03 3.46-2.68 3.46-1.53 3.84-2.62 4.58-5.68 1.63-2.57.2-.44 1.21-2.24 0-1.14-1.92-1.92-1.58-1.09-5.67 0-2.83-.33-.63-.05-1.49-.38-1.51-.77-1-1.04-1.54-1.53-1.54 0-1.54-1.52-3 0-4.5-4.54-1.55 0z" /><path id="sagay" d="m1153.45 87.01l1.92 1.48 1.54 0 5.29-4.92.79-1.48 2.71-1.53 4.12-1.14 1.92 0 2.3-1.48 1.5-2.29 0-1.86-.76-1.53-3.04 0-3.41.38-4.92 1.53-2.71 2.24-2.29 3.01-2.3 3.44-1.49 1.09-.79 1.15-.38.76 0 1.15z" /><path id="sagay" d="m977.09 60.35l-2.3.28-.71-1.81-2.29.39-1.16.16-1.54-.22-2.63.38-1.17.77 0 .49-.83 6.12 1.54 1.86 0 1.53.46.65 6.46.38 7.58-1.14 2.63-2.3-.38-2.89-1.17-3.01-1.49-.16-1.51-1.48-1.49 0z" /><path id="sagay" d="m199.41 586.7l-93.31 85.49-101.1 106.24 54.01-20.54 131.73-.99.88-3.87 1.41-2.3 2.34-.77 2.29-.1 2.67 1.2 3.66-4.04.29-4.21.09-3.44 1.79-5.02 2.21 2.12 2.42.83 1.58-3.12-1.17-1.47.54-4.75.13-2.35 2.54-1.43 5.09-2.24 4.41-7.37-1-2.73-.79-2.51-1.37-3.39-.96-5.08 3.33-5.46.25-3.5-.62-.82-5.92-1.31-9.29-3.44-.63-.38 1.42-2.35 2.62-.27 3.79-1.86 1.92-2.02.46-3.66-.46-3.93-2.83-3.94-3.92-.11-2.87 1.64-.71-1.8 1.41-1.69 2.09-.82-1.13-2.68-2.75-3 .79-1.26 1.42-3.55-.87-4.7-1.21-6.72.7-2.07 2.84-2.95 1.62-4.7.5-4.04-1.66-2.4-3.59-2.63-3.5-5.89-3.58-2.08.12-2.46 3.8-2.62-3.5-7.7-.05-1.75 3.63-3.72.17-3.6-1.46-1.2-2.71-6.72z" /><path id="sagay" d="m809.31 206.03l13-5.34.17-.07 41.83-54.02-109.39-58.93-130.56 51.67-25.84 26.6 11.88 6.77 129.23 62.71 69.68-29.39z" /><path id="sagay" d="m1067.43 672.57l-1.04 1.91-3.16 4.26-5.76 4.81-2.58-.99-2.75-1.53 1.67-5.79.79-7.04-1.59-2.52-2.37 1.81-5.13.92-5.58 2.08-3.71-4.37-3.5-4.7-2.5-2.73-4.79-1.25-2.13-2.9-2.21-4.1-.25-4.42-1.29-3.88-1.25-.11.46-.93 3.96-5.19-3.79-6.93-3.34-2.02-5.29.16-2.71-2.18-10.13-8.63 1.63-2.03-2.67-5.24-2.21-2.68-2.25-2.89-1.25-2.95-.54-5.52-.62-2.95-27.05 91.61 6.83 3.49 1.67-1.69 1.5 0 1.58 1.52 1.46 0 1.55 1.54 1.5 0 1.5 1.47 6.12 0 4.5-4.53 1.54 0 4.55 4.53 1.54 0 1.5 1.53 3 0 4.58 4.53 0 1.54 1.5 1.52 0 1.53-1.5 1.53-3.04 0-4.54-4.58-6.71 6.71-.88.88 0 1.53 1.46 1.52 0 1.48 2 1.97 2.63 2.62 3 0 3.04 3 0 3.06 1.46 1.53 0 2.95 3.08 3.12 3.05 0 6.08-6.07-1.54-1.53 0-1.53-1.46-1.53 0-4.53 1.46-1.53 0-1.53 1.54-1.48 1.5 0 3 3.01 0 6.06 1.54 1.53 0 1.53 3.09 3.01 0 1.53-.46.43-1.08 1.09 0 1.54-3.09 3 1.54 1.53 0 9.12 3.67 3.66.88.87 1.54 0 1.5 1.53 1.54 0 1.46 1.53 1.54 0 1.54 1.48 1.29.22 2.25.76 1.55 1.15 2.66.38 3.71-.27 2.25-2.08 2.42-1.8 2.29-1.7 2.04-1.85 2.05-1.86 1.91-1.91 1.92-1.86 1.75-1.97 1.79-1.91 1.96-1.91 2.04-2.18 1.88-2.52 1.92-2.78 1.66-2.9 1.17-2.94.83-2.9.92-2.73.54-2.79.17-.43.83-1.92.59-2.46 1.16-1.91 1.29-1.74 1.17-1.81-.58-2.62-2.46-3.17-1.29-3.11-.63-3.28-.54-4.42-3 0-4.63-4.54 0-1.52-4.58-4.54 0-1.53-.63-.76z" /><path id="sagay" d="m831.1 304.36l-2.75 2.02-1.75 1.69-1.04-3.39-3.54 1.04-1.59 2.4-1.04-1.58-2.87.6-4.05-1.7-.87-3.93-5.46-.49.25-3.22-2-1.59.75-5.4-8.17-8.09-3.21-4.2 1.54-2.95-1.41-4.32-2.71-5.08-2.79-9.01-3.09-6.39-5.87-6.28-10.38-4.65-6.25 1.76-6.46.65-4.54-.93-4.75-2.57-7.42-3.33-129.23-62.71 1.91 5.08 1.84 4.53.54 4.92 1.83 1.1.38 2.51-3.46 4.75 2.67 2.08.58 2.73-1.71 5.29-3.92 3.72-3.62 4.32 2.58 1.74.58-4.2 1.76 1.69.29 4.15-2 1.86-3.38 3.77 1.33 4.31.13 5.9-1.17 4.37-1.58 4.59 1.33 3.77.09 2.29.75 1.97 2.96 3.22-1.05 3.44-2.75 3.23 3.09 1.58-1.34 1.59 2.92 1.42-1.42 1.52-1.83 1.48-1.58 1.04-1.34 1.15 1.96 2.24 1.13 3.27-1 1.64-.59 5.08 1.29 3.55-1.12 1.91.96 2.35 2.46 3.23 2.46 4.47 1.62.71 1.96-2.18 4-.87 2.46 0 2-1.37 5.96 2.13 3.62 3.66 2.3-.22 2.62-1.2 2.63-3.39 3.29-1.85 5.5 3.16 3.29 0-.12-2.46 2.46-1.64 4.16 2.96 1.84 1.47 2.91 1.53 1.75-.16 4.46-2.62 1.67-2.9 3.33-3.28 1.88-.54 3.54 1.2 1.21-.22 3.38-3.5 2.33 1.04 2.04 1.37 2.29 0 3.92-2.79 5.21-3.66 3.33.16 3.38 2.3 1.21 4.48-.33 3.05-.59 2.08-2.54 1.21-3.33-.66-1.46 2.29 2.08 3.5 3.17 3.27 3.42 3.07 1.12 1.47 0 2.89.46 4.7 2.71 6.5 3.79 3.66 4.71 3.11 4.58 3.61 2.96 1.69 7.55 2.52 3.04 4.97-1.67 6.11 2.83 2.96 2.09-.99 3.79-.93.88 1.97.29 3-1.5 4.27-2 4.91-.75.93-3.67 2.24.08 3.77 3.05 1.09 1 .49 2.7 1.64-3.29 2.02-4.54 3.06 4.25 3.71 1.75.22 3.08-2.73 4.25-4.1 5.34-2.29 4.88-.49 6.25 2.84 5.62 4.37.71 6.94 4.13 5.13.79 5.14-2.46 3.06-6.25 3.11-7.71 5.79-5.38 7.32-5.62 6.66-2.46 6.88 1.16 2.85 3.96-1.43 2.71-1.42 4.67-3.33 5.25-2.13 6.67-1.09 7.29-.6 6.79 5.41 7.13 5.84 6.25 2.4 2.34-.22 2.37-2.78 1.71-2.4-.38-7.49-.16-7.26 2.12-7.32 4.05-5.25 4.75.39 4.71 1.47 4 5.79 1.37 4.37-.08-50.58-.17-60.57z" /><path id="sagay" d="m832.39 424.41l-1.46 6.5 0 8.04-.25 4.64-3.91 1.09-2.71 0-1.67 0-1.5.05 3.17 1.65 1.42.76 4.2-.06 3.84 5.79 2.21 3.55 1.08 6.18-2.12 3.87 48.34 86.42 106.52 39.16 48.26-55.33 15.91-132.46 3.09-5.97 5.92-11.41 1-1.94.59-1.14 1.94-3.73-.2-.66-.33-.88-2.17-2.35-3.04-2.13-3.09-2.29-2.54-2.73-2.29-2.3-2.29-1.31-2.13.66-1.67 1.85-.87 2.79-.96 3.01-1.42 2.4-2.08 1.64-2.46 1.04-2.67.71-2.37.92-2.21 1.48-1.29.05-10.46 10.44-7.75 7.81-1.5 0-1.55 1.53.38 3.38.67 1.75.58 1.53 1.25 2.35.96 1.85.87 1.48.71 1.48.42 1.47.33 1.37-.04 1.25-.63 1.04-.95.71-2.3-.65-1.37-1.59-1.5-1.8-1.67-1.25-1.96-.06-2.21.82-2.41 1.04-2.59.92-2.79.28-2.37-.28-1.84-.49-1.5-.16-.96 1.58 1.09 1.59 1.54 1.69 1.33 1.25.59 1.54-.63 1.53-1.29 1.74-1.08 1.86-1.38 1.59-1.87.97-2.01.11-1.87-.59-.83.54-3-3.06 0-1.47-3.05-3.06 3.05-3.06 0-3.44 0-2.62-3.05-3-4.33 0-.75 0-1 0-3 3-2.71 4.31-6.13 5.79-5.41 1.86-3.96 2.02-4.46 2.73-3 1.1-3.88 5.02-.79 2.62-.42 2.13-1.41 3.33-.46 1.53-1.13 1.64-.41.22-2.42-2.73-1.92-1.64-3.75-2.18-4.75-2.41-2.92-2.51-1.62-2.57.58-4.53.08-5.35 1.21-2.9.09-2.62-2.88 1.75-2.67 6.83-.41 4.37 1.21 6.66 3.95 4.53 6.51 2.79 3 4.09 1.33 2.63 3.42 3.71 4.37-1.97 3.34-2.18.71-3.33.29-4.21.96-2.95 2.2 1.37.59 11.08-2.59 3.23-2.91 5.62-7.09 9.94-11.21-1.03-9.67.43-6.96-.65-8.58-1.75-4.96-2.18-8.17-4.54-4.12-2.84-5.34-8.74-1.67-6.28-3.95-6.44-1.09-2.24-1.83 1.64-2.54-3.61-11.09 3.44-5.29 6.72-3.84 3.72-2.75-.11-2.25-6.02-.33-8.08 0-6.66-2.17-6.07z" /><path id="sagay" d="m507.42 612.15l48.13 135.52 104.69 25.84 7.67 3.28 9.37-3.01 6.21-1.47 3-6.01 2.88-5.79 2.92-.27 4.2-4.05.8-5.13.54-6.28 1.08-13.11 49.93-42.77-62.76-172.28-140.24.71-21.5 4.91-11.46 41.41-6.04 14.2-1.5 20.48 2.08 13.82z" /><path id="sagay" d="m831.35 415.51l-1.37-4.37-4-5.79-4.71-1.47-4.75-.39-4.05 5.25-2.12 7.32.16 7.26.38 7.49-1.71 2.4-2.37 2.78-2.34.22-6.25-2.4-7.13-5.84-6.79-5.41-7.29.6-6.67 1.09-5.25 2.13-4.67 3.33-2.71 1.42-3.96 1.43-1.16-2.85-33.59-8.68-32.92 95.59 62.76 172.28 54.84-39.77 6.67 7.21 5.46 6.23 6.21 1.2 3.87-.38 6.88-4.7 3.08 4.1 8.75-.88 3.55-2.18 3.33 2.62 8.33-2.62-6.45-5.03-.21-3.22 1.12-1.2 2.92-4.04 3.79-.99.5-.27 1.21-2.46 1.08-2.94.3-5.14 18.96-81.55-48.34-86.42 2.12-3.87-1.08-6.18-2.21-3.55-3.84-5.79-4.2.06-1.42-.76-3.17-1.65 1.5-.05 1.67 0 2.71 0 3.91-1.09.25-4.64 0-8.04 1.46-6.5-.58-1.36-.46-7.54z" /><path id="sagay" d="m369.27 493.51l1.25-7.42 15.42-29.94-7.08-39.55 2.91-7.1-3.16-7.42 7.71-16.01-101.15 106.13-52.3 58.23-33.46 36.27 2.71 6.72 1.46 1.2-.17 3.6-3.63 3.72.05 1.75 3.5 7.7-3.8 2.62-.12 2.46 3.58 2.08 3.5 5.89 3.59 2.63 1.66 2.4-.5 4.04-1.62 4.7-2.84 2.95-.7 2.07 1.21 6.72 121.85-3.49 40.13-152.95z" /><path id="sagay" d="m620.94 295.02l-.37.7 2.16 2.3-.33 1.42-1.08 1.47-2.46 5.03.16 1.09 2.71 2.62 3.09 1.92.91 4.26-2.33 4.64-2.08.98-1.21 1.81-1.75.97-1.59 0-4-.65-4.79-3.11-5.88-2.02-3.96 2.46-3.41 4.8-2.63 3.06-2.79.16-1.71 2.68-2.08.93-2.38.82-1.25-3.06 2.04-4.8-2.5-4.16-4.54-1.04-4.08-.54-3.92-2.24-4.71.71-3.46 4.09-3.08.83-1.34 2.29-2.08 2.68-1.58 4.31 1.75 3.17-3.17 4.1-3.17-1.32-2.66 1.91-1.71 1.26-2.05-2.45-1.75.76-1.83.49 1.29 4.97 1.34 3.23.54 4.42-.88 5.41-1.71 5.07.3 2.74 2.75 1.96 4.75 1.92 5.96 1.8 4 1.64 162.61 47.52 33.59 8.68 2.46-6.88 5.62-6.66 5.38-7.32 7.71-5.79 6.25-3.11 2.46-3.06-.79-5.14-4.13-5.13-.71-6.94-5.62-4.37-6.25-2.84-4.88.49-5.34 2.29-4.25 4.1-3.08 2.73-1.75-.22-4.25-3.71 4.54-3.06 3.29-2.02-2.7-1.64-1-.49-3.05-1.09-.08-3.77 3.67-2.24.75-.93 2-4.91 1.5-4.27-.29-3-.88-1.97-3.79.93-2.09.99-2.83-2.96 1.67-6.11-3.04-4.97-7.55-2.52-2.96-1.69-4.58-3.61-4.71-3.11-3.79-3.66-2.71-6.5-.46-4.7 0-2.89-1.12-1.47-3.42-3.07-3.17-3.27-2.08-3.5 1.46-2.29 3.33.66 2.54-1.21.59-2.08.33-3.05-1.21-4.48-3.38-2.3-3.33-.16-5.21 3.66-3.92 2.79-2.29 0-2.04-1.37-2.33-1.04-3.38 3.5-1.21.22-3.54-1.2-1.88.54-3.33 3.28-1.67 2.9-4.46 2.62-1.75.16-2.91-1.53-1.84-1.47-4.16-2.96-2.46 1.64.12 2.46-3.29 0-5.5-3.16-3.29 1.85-2.63 3.39-2.62 1.2-2.3.22-3.62-3.66-5.96-2.13-2 1.37-2.46 0z" /><path id="sagay" d="m1064.56 370.88l2.04 2.02 1.46 0 6.13 6.07 0 1.53 3.08 3.01 2.67-2.74.33-.27 1.5 0 3.25 3.22 5.83 5.84 1.55 0 3 3.07 1.5 0 1.54 1.52 3.04 0 3.04-3.05 0-.6 0-.94 1.96-.49 2.29-.76 2.71-1.26 3.34-.6 3.41-.82 3.34-.82 2.71-1.3 1.79-1.16.46-.27.41-.33 1.55-1.03 1.54-1.53 1.25-1.81.75-1.25.37-.71 1.84-1.86 1.66-2.13-.04-4.09 1-3.01 1.59-2.07 1.41-1.7 1.34-1.37 1.21-1.25.95-1.2.13-.49.46-.99.58-1.53 1.04-1.58 1.5-1.86 1.5-2.18 2.05-2.3 2.37-2.07 2.42-1.97 2.5-1.53 2.71-.71 2.46-.21 2.2.1 2.25 0 2.38 0 2.38.06 2.5-.27 2.33-1.21 2.21-1.47 2.12-1.42 1.5-2.02.96-2.35 1.04-2.19.8-2.29.08-2.57-.79-2.84-.84-2.95-.2-3.17-2.09-2.51-3.08-3.06 0-3-1.5-1.53 0-7.59-1.5-1.53 0-1.54 1.5-1.47 0-6.12 1.5-1.47-1.5-1.53 1.5-1.53 0-1.53-.13-1.58-.41-1.64.54-5.85 1.54-1.52 0-1.54-2.29-3.76-.75-11.42 3.04-7.59 0-3.01-1.54-1.53-2.04-1.52-2.59-1.81-2.83-1.42-3.21.22-3.29.33-3.38.05-2 1.2-1.67 1.53-1.79 1.7-1.58 2.24-1.83 2.18-2.21 2.13-1.92 2.13-1.96 1.91-1.83 1.64-1.34 1.97-1.16 1.85-1.17 1.8-.62 2.08-.8 2.08-.46 2.08-.66 1.63-.71 1.26-5.96 4.21-2.25 2.24-3.04.76-2.67 0-7.21-1.14-3.46-.72-12.54 0-2.71 1.1-1.13 1.53-3.83 3-1.88 0-4.95-1.09-3.05 1.47-3.08 3.39-1.5 1.53-2.29 1.53-4.17 1.47-4.96 4.92-3.83 1.91-4.17.38-1.33-.27 1.83 8.84 5.58 21.2 2.3 13.87-3.05 28.96.05 1.8.08 1.85z" /><path id="sagay" d="m686.08 516.62l32.92-95.59-162.61-47.52 1.12 2.51-.41 2.84.29 5.03-.25 3.87-2.67 1.8-3.5 1.54-2.13-.99-3.29-1.91-6.21-3.28-8.17.39-1.79 2.89-.54 3.38 1.25 3.23-2.5 2.68-1.17 2.35 4.59 1.63 1.33 3.66-1.33 1.43.87 4.53-1.04 3.17-5.79-.28-2.67 1.42-.71 2.19-1.66.05-2.46 1.2 2.58 1.31 2.54 2.3 1.04 3.17-4.41 1.14-.88 4.26-2.16 3.39-3.26 6.06-1.37 3.77-.71 7.16 1.71 1.64-1.33 2.68-3.34-1.16-.66 1.05-1.34 2.13-1.5.33-3.62-2.46-2.46 1.3.21 3.01 2.83 3.22 3.71.27 4.58-1.52 4.17-.72 3 5.52.25 3.66 2.17-.43 3.16 6.44 2.59 2.95 5.75 1.97 6.08 2.73 3.8 1.75 5.46-2.41 0-3.55.7-1.14 1.84-1.75 2.5-2.08 1.92 4.65-.55 2.02 1.21 7.42-.66 7.98-1.17 5.46-2.71 4.21-3.13 1.31-4.46 1.96 1.34 2.79 2.87 4.7 140.24-.71z" /><path id="sagay" d="m329.14 646.46l-121.85 3.49.87 4.7-1.42 3.55-.79 1.26 2.75 3 1.13 2.68-2.09.82-1.41 1.69.71 1.8 2.87-1.64 3.92.11 2.83 3.94.46 3.93-.46 3.66-1.92 2.02-3.79 1.86-2.62.27-1.42 2.35.63.38 9.29 3.44 5.92 1.31.62.82-.25 3.5-3.33 5.46.96 5.08 1.37 3.39.79 2.51 1 2.73-4.41 7.37-5.09 2.24-2.54 1.43-.13 2.35-.54 4.75 1.17 1.47-1.58 3.12-2.42-.83-2.21-2.12-1.79 5.02-.09 3.44-.29 4.21-3.66 4.04-2.67-1.2-2.29.1-2.34.77-1.41 2.3-.88 3.87 136.44 1.59 152.11 2.84 47.13-20.71 29.13 7.05-48.13-135.52-101.1 34.36-77.18-.05z" /><path id="sagay" d="m1037.81 536.72l-48.26 55.33.62 2.95.54 5.52 1.25 2.95 2.25 2.89 2.21 2.68 2.67 5.24-1.63 2.03 10.13 8.63 2.71 2.18 5.29-.16 3.34 2.02 3.79 6.93-3.96 5.19-.46.93 1.25.11 1.29 3.88.25 4.42 2.21 4.1 2.13 2.9 4.79 1.25 2.5 2.73 3.5 4.7 3.71 4.37 5.58-2.08 5.13-.92 2.37-1.81 1.59 2.52-.79 7.04-1.67 5.79 2.75 1.53 2.58.99 5.76-4.81 3.16-4.26 1.04-1.91-.83-.77 0-1.53-1.54-1.53 0-6.06 1.54-1.53 0-1.47 1.46-1.53 0-1.53 7.63-7.59 2.33-.61 1.71-.05 2.83.55 2.88-.55 2.91-.33 2.92.88 3.17.81 2.75 1.1 2.25.82 1.83-.82 1.84-1.15 1.87-1.09 1.59-.99.41-.22 1.79-1.47 1.67-1.69 1.21-2.46.29-3.83 1.38-2.02 2.12-.65 2.63-.16 2.83-.11 2.67-.49 2.42-.22 2.08.38 2 .44 2 0 2-.6.42-.22 1.41-.83 1.71-1.36 1.79-1.58 1.96-1.53 2.13-1.31 1.87-1.37 1.71-1.36 1.46-1.48 1.42-1.69 1.33-2.14.88-2.56.21-2.79-1.71-2.83-1.96-2.52-.59-2.95-.79-2.51.04-2.46.84-2.35.62-2.73 1.13-2.73 1.17-7.76 1.5-3.06 1.5-1.85 0-4.54-.8-3.38-1.41-3.44-3.05.33-2.04-.83-1.33-2.13.04-2.68 2.42-2.18 3.75-1.74.37-1.43-.33-1.58.5-1.69.88-1.53.33-1.53-2.58-2.24-2.13-1.91-1.84.49-80.64-8.72-28.45-3.08z" /><path id="sagay" d="m524.34 522.24l21.5-4.91-2.87-4.7-1.34-2.79 4.46-1.96 3.13-1.31 2.71-4.21 1.17-5.46.66-7.98-1.21-7.42.55-2.02-1.92-4.65-2.5 2.08-1.84 1.75-.7 1.14 0 3.55-5.46 2.41-3.8-1.75-6.08-2.73-5.75-1.97-2.59-2.95-3.16-6.44-2.17.43-.25-3.66-3-5.52-4.17.72-4.58 1.52-3.71-.27-2.83-3.22-.21-3.01 2.46-1.3 3.62 2.46 1.5-.33 1.34-2.13.66-1.05 3.34 1.16 1.33-2.68-1.71-1.64.71-7.16 1.37-3.77 3.26-6.06 2.16-3.39.88-4.26 4.41-1.14-1.04-3.17-2.54-2.3-2.58-1.31 2.46-1.2 1.66-.05.71-2.19 2.67-1.42 5.79.28 1.04-3.17-.87-4.53 1.33-1.43-1.33-3.66-4.59-1.63 1.17-2.35 2.5-2.68-1.25-3.23.54-3.38 1.79-2.89 8.17-.39 6.21 3.28 3.29 1.91 2.13.99 3.5-1.54 2.67-1.8.25-3.87-.29-5.03.41-2.84-1.12-2.51-4-1.64-5.96-1.8-4.75-1.92-2.75-1.96-.3-2.74 1.71-5.07.88-5.41-.54-4.42-1.34-3.23-1.29-4.97 1.83-.49 1.75-.76 2.05 2.45 1.71-1.26 2.66-1.91 3.17 1.32 3.17-4.1-1.75-3.17 1.58-4.31 2.08-2.68 1.34-2.29 3.08-.83 3.46-4.09 4.71-.71 3.92 2.24 4.08.54 4.54 1.04 2.5 4.16-2.04 4.8 1.25 3.06 2.38-.82 2.08-.93 1.71-2.68 2.79-.16 2.63-3.06 3.41-4.8 3.96-2.46 5.88 2.02 4.79 3.11 4 .65 1.59 0 1.75-.97 1.21-1.81 2.08-.98 2.33-4.64-.91-4.26-3.09-1.92-2.71-2.62-.16-1.09 2.46-5.03 1.08-1.47.33-1.42-2.16-2.3.37-.7-4 .87-1.96 2.18-1.62-.71-2.46-4.47-2.46-3.23-.96-2.35 1.12-1.91-1.29-3.55.59-5.08 1-1.64-1.13-3.27-1.96-2.24 1.34-1.15 1.58-1.04 1.83-1.48 1.42-1.52-2.92-1.42 1.34-1.59-3.09-1.58 2.75-3.23 1.05-3.44-2.96-3.22-.75-1.97-.09-2.29-1.33-3.77 1.58-4.59 1.17-4.37-.13-5.9-1.33-4.31 3.38-3.77 2-1.86-.29-4.15-1.76-1.69-.58 4.2-2.58-1.74 3.62-4.32 3.92-3.72 1.71-5.29-.58-2.73-2.67-2.08 3.46-4.75-.38-2.51-1.83-1.1-.54-4.92-1.84-4.53-1.91-5.08-11.88-6.77-61.59 69.97-150.61 150.16-7.71 16.01 3.16 7.42-2.91 7.1 7.08 39.55-15.42 29.94-1.25 7.42 64.47 25.08 90.6 3.65z" /><path id="sagay" d="m989.55 592.05l-106.52-39.16-18.96 81.55-.3 5.14-1.08 2.94-1.21 2.46-.5.27-3.79.99-2.92 4.04-1.12 1.2.21 3.22 6.45 5.03 5.05 2.9 1.33 2.78 2.58 3.06 1.59 1.8 3.54 2.13 3.25 4.92 3 .65 8.25 0 3.3-.87 8.41.44 9.17 3.82 9 2.02 13.3 4.87 12.79-3.83 5.75-1.2 12.38.44 27.05-91.61z" /><path id="sagay" d="m997.08 265.04l1.26 1.13 1.46-3.66 2.16-.87.84-2.02.75-1.97.83-1.96.83-2.03.34-.87.46-1.53 1.42-2.35.58-.98.87-1.48 1.34-2.67 1.25-2.9 1.12-3.06 1.04-3.06 1.34-2.73 1.16-2.45.38-2.52.04-2.13-.04-1.96-.17-.5-1-1.31-.29-1.53.38-3.16.33-2.52.46-1.14.29-.77.38-.76.33-1.86 0-.76.33-1.1.04-.43.09-1.75-3.5-2.73-4.59-.77-3.83-.38-5.29-3-2.3-3.77-5.71-1.53-5.79-3.77-2.21-4.15-3.83-3.01-2.67-3.38-1.12-2.46-.76-1.7-.41-1.14-.71-1.91-.17-.66-1-5.74.29-4.69-3.25-1.1-2.54-.21-2 .27-2.04.93-2.12.65-2.17-.05-1.63-.93-.75-1.42.42-1.58 1.5-1.37 1.75-.98 1.58-.99.71-1.25-.62-1.86-2.01-2.29-2.37-.77-2.21.98-2.17 1.86-2.16.88-2.34-1.37-1.12-2.29.58-1.86 1.25-1.26 1.25-1.14 1.13-1.15 1.21-1.26.33-.71-4.42 2.9-4.38-.88-3.58-1.2-.21.2-1.08 1.06.67 3.66-.25.65-.71 1.86-4.88 1.58-3.91-.11-4.8-1.58-3.29-.55-1.27-.35-.1-.03-2.55 1.15-3.75-.58-.83-.13-4.75-.6-6.54-2.3-2.06.59-.61.18-.63-.35-3.25-1.84-1.96-.43-.05-.16-1.15-3.07-.13-2.67.04-.44-1.83-2.18-1.03-.5-.55-.27-1.5.8-1.26.68-.83 1.17-1.33 1.88-4.71-.26-.09-.01-.08 0-2.21-.05-3.45 2.18-2.76 3.88-.73.51-1.23.86-3.83 1.85-1.67-.64-.46-.18-41.83 54.02-.17.07-13 5.34 44.75 47.14 4-8.9 8.82-.21 2.81-.06 12.05 7.04 2.7 1.96.92.67 4.17 5.18 4.08 2.51 2.54.44 1.46 1.59 1.63 2.02 1.43-.04.82-.02.93-.02 1.69-.03 2.55 3.28-.21 1.09-.46 2.07 8.75 2.03 4.87-1.63 2.97-1 5.5-1.91 1.35-.33 2.73-.65 5.04-1.31 5.46-.49.67-.57 1.92-1.62 1.84-.65 4.03-1.42 4.21-.77.43-.08.99-.19 1.05-.15.12-.02 2.04 3.28.56.86 1.19 1.82 2.84 2.25 3.78 2.99 2.72.53 1.74.34 1.13-.32.58-.17 1.96-.6 9.33-2.89 2.87-.84 2.38-.69.82-1.38.6-1.02 1.92.65.47-.2 1.91-.84.32.29z" /><path id="sagay" d="m1032.39 196.69l0-2.95-1.59 0 0 2.95-1.58 0 0 3.01-1.42 0 0 1.42 1.58 0 0 1.58 5.38 0 .58 0 0-1.53 1.55 0 0-1.58-1.55 0 0-2.9-2.95 0z" /></g></g></svg>